<?xml version="1.0" encoding="iso-8859-1"?>
<!-- Generator: Adobe Illustrator 19.0.0, SVG Export Plug-In . SVG Version: 6.00 Build 0)  -->
<svg version="1.1" id="Layer_1" xmlns="http://www.w3.org/2000/svg" xmlns:xlink="http://www.w3.org/1999/xlink" x="0px" y="0px"
	 viewBox="0 0 512 512" style="enable-background:new 0 0 512 512;" xml:space="preserve">
<g>
	<g>
		<path d="M114.019,361.012H74.313c-5.77,0-10.449,4.679-10.449,10.449v39.706c0,5.77,4.679,10.449,10.449,10.449h39.706
			c5.771,0,10.449-4.678,10.449-10.449v-39.706C124.468,365.691,119.789,361.012,114.019,361.012z M103.57,400.718H84.762V381.91
			h18.808V400.718z"/>
	</g>
</g>
<g>
	<g>
		<path d="M141.246,257.534h-0.137c-5.77,0-10.449,4.679-10.449,10.449c0,5.77,4.679,10.449,10.449,10.449h0.137
			c5.77,0,10.449-4.679,10.449-10.449C151.695,262.213,147.016,257.534,141.246,257.534z"/>
	</g>
</g>
<g>
	<g>
		<path d="M366.64,257.535h-0.138c-5.77,0-10.449,4.679-10.449,10.449c0,5.77,4.679,10.449,10.449,10.449h0.138
			c5.77,0,10.449-4.679,10.449-10.449C377.089,262.214,372.41,257.535,366.64,257.535z"/>
	</g>
</g>
<g>
	<g>
		<path d="M437.687,361.012h-39.706c-5.77,0-10.449,4.679-10.449,10.449v39.706c0,5.77,4.679,10.449,10.449,10.449h39.706
			c5.77,0,10.449-4.678,10.449-10.449v-39.706C448.136,365.691,443.457,361.012,437.687,361.012z M427.238,400.718H408.43V381.91
			h18.808V400.718z"/>
	</g>
</g>
<g>
	<g>
		<path d="M122.031,81.721c-8.455-14.653-24.353-24.082-41.583-24.082c-17.228,0-33.125,9.43-41.582,24.082
			C17.153,83.4,0,101.64,0,123.821c0,5.77,4.678,10.449,10.449,10.449c5.77,0,10.449-4.679,10.449-10.449
			c0-11.76,9.531-21.328,21.246-21.328c0.705,0,1.434,0.039,2.228,0.117c4.696,0.48,9.118-2.264,10.8-6.671
			c3.973-10.408,14.131-17.402,25.276-17.402c11.147,0,21.304,6.992,25.277,17.402c1.682,4.406,6.114,7.154,10.801,6.671
			c0.782-0.077,1.53-0.117,2.225-0.117c7.938,0,14.873,4.391,18.521,10.88H61.569c-5.77,0-10.449,4.679-10.449,10.449
			c0,5.77,4.679,10.449,10.449,10.449h88.881c5.77,0,10.449-4.678,10.448-10.449C160.898,101.641,143.743,83.403,122.031,81.721z"/>
	</g>
</g>
<g>
	<g>
		<path d="M255.999,397.073c-5.77,0-10.449,4.679-10.449,10.449v0.138c0,5.77,4.679,10.449,10.449,10.449
			c5.771,0,10.449-4.679,10.449-10.449v-0.138C266.448,401.752,261.769,397.073,255.999,397.073z"/>
	</g>
</g>
<g>
	<g>
		<path d="M501.551,468.637h-15.673V313.992h15.673c3.716,0,7.151-1.973,9.025-5.182c1.872-3.208,1.901-7.17,0.073-10.405
			l-38.602-68.355c-1.853-3.282-5.33-5.311-9.098-5.311H336.607v-70.726c0-2.924-1.225-5.714-3.377-7.691l-66.781-61.394v-6.058
			h52.245c4.048,0,7.731-2.337,9.455-6.001c1.724-3.663,1.176-7.991-1.406-11.11l-9.178-11.091l9.178-11.089
			c2.582-3.118,3.129-7.447,1.406-11.11c-1.723-3.663-5.407-6.002-9.455-6.002H256c-5.77,0-10.449,4.679-10.449,10.449v52.013
			l-66.779,61.394c-2.154,1.979-3.377,4.768-3.377,7.692v70.726H40.986c-4.122,0-7.859,2.423-9.54,6.187L0.909,299.281
			c-1.444,3.233-1.154,6.978,0.773,9.948c1.927,2.971,5.226,4.763,8.767,4.763h15.673v154.645H10.449
			C4.678,468.637,0,473.316,0,479.086c0,5.77,4.678,10.449,10.449,10.449h491.102c5.77,0,10.449-4.679,10.449-10.449
			C512,473.316,507.322,468.637,501.551,468.637z M266.449,43.363h30.031l-0.53,0.641c-3.201,3.865-3.201,9.459,0,13.325
			l0.531,0.642h-30.032V43.363z M256,103.708l43.353,39.857h-86.705L256,103.708z M196.291,164.463h0.001h119.416v92.997
			l-17.913-11.516v-31.451c0-22.909-18.75-41.547-41.796-41.547s-41.796,18.638-41.796,41.547v31.451l-17.913,11.515V164.463z
			 M276.898,214.493v18.017l-6.36-4.089c-8.83-5.67-20.244-5.67-29.081,0.003l-6.355,4.086v-18.017
			c0-11.385,9.375-20.649,20.898-20.649C267.523,193.844,276.898,203.107,276.898,214.493z M252.752,246.008
			c1.972-1.265,4.521-1.267,6.491-0.003l120.477,77.448l-6.485,10.087l-111.585-71.731c-1.72-1.107-3.685-1.659-5.65-1.659
			s-3.93,0.553-5.65,1.659L138.767,333.54l-6.485-10.087L252.752,246.008z M26.561,293.094l6.549-14.661h74.194
			c5.77,0,10.449-4.679,10.449-10.449c0-5.77-4.679-10.449-10.449-10.449H42.447l5.315-11.898h127.631v25.256l-34.534,22.201H36.571
			H26.561z M47.02,468.637V313.992h62.516c-0.916,1.204-1.579,2.596-1.906,4.102c-0.588,2.708-0.077,5.539,1.42,7.869l17.785,27.667
			c3.121,4.855,9.587,6.26,14.439,3.14l0.036-0.023v111.89H47.02z M280.297,468.637h-13.848v-27.174
			c0-5.77-4.679-10.449-10.449-10.449c-5.77,0-10.449,4.679-10.449,10.449v27.174h-13.848v-83.341h48.594V468.637z M349.79,468.637
			h-48.595v-93.79c0-5.77-4.679-10.449-10.449-10.449h-69.492c-5.77,0-10.449,4.679-10.449,10.449v93.79H162.21V343.323L256,283.029
			l93.79,60.294V468.637z M464.98,468.637h-94.292v-111.89l0.036,0.023c1.748,1.123,3.705,1.66,5.639,1.66
			c3.437,0,6.803-1.694,8.8-4.8l17.785-27.667c1.498-2.33,2.009-5.161,1.42-7.869c-0.327-1.507-0.99-2.899-1.906-4.102h62.517
			V468.637z M475.429,293.094H371.14l-34.535-22.201v-25.256H456.85l6.719,11.897h-63.124c-5.77,0-10.449,4.679-10.449,10.449
			c0,5.77,4.679,10.449,10.449,10.449h74.927l8.28,14.662H475.429z"/>
	</g>
</g>
<g>
</g>
<g>
</g>
<g>
</g>
<g>
</g>
<g>
</g>
<g>
</g>
<g>
</g>
<g>
</g>
<g>
</g>
<g>
</g>
<g>
</g>
<g>
</g>
<g>
</g>
<g>
</g>
<g>
</g>
</svg>
