<?xml version="1.0" encoding="iso-8859-1"?>
<!-- Generator: Adobe Illustrator 19.0.0, SVG Export Plug-In . SVG Version: 6.00 Build 0)  -->
<svg version="1.1" id="Capa_1" xmlns="http://www.w3.org/2000/svg" xmlns:xlink="http://www.w3.org/1999/xlink" x="0px" y="0px"
	 viewBox="0 0 512.001 512.001" style="enable-background:new 0 0 512.001 512.001;" xml:space="preserve">
<g>
	<g>
		<path d="M507.607,246.394l-30-30c0,0-0.002-0.001-0.002-0.002c-5.82-5.817-15.342-5.863-21.208,0
			c-0.001,0.001-0.002,0.001-0.002,0.001l-30.001,30.001c-5.858,5.858-5.858,15.355,0,21.213c5.857,5.858,15.355,5.858,21.213,0
			l4.394-4.394V362H315c-8.284,0-15,6.716-15,15v45h-32.578c3.351-9.415,3.481-19.61,0.27-29.236l-30.002-90.007
			c-4.459-13.354-15.093-23.989-28.454-28.449L150,254.563V242h75c24.813,0,45-20.187,45-45s-20.187-45-45-45h-62.185
			l-17.561-35.121c-0.052-0.105-0.111-0.205-0.164-0.31c-0.03-0.059-0.06-0.119-0.091-0.178c20.16-9.528,35-30.574,35-55.391
			c0-33.02-26.676-61-60-61C86.642,0,60,28.006,60,61c0,15.399,5.741,30.033,16.179,41.429c-2.042,1.696,3.522-3.765-62.996,62.753
			c-17.544,17.544-17.544,46.091,0,63.635L60,275.635v7.648L30.614,459.597c-1.298,7.786-0.496,15.444,1.979,22.403H15
			c-8.284,0-15,6.716-15,15s6.716,15,15,15h150c8.284,0,15-6.716,15-15v-45c4.617,0,130.612,0,135,0c8.284,0,15-6.716,15-15v-45h137
			c8.284,0,15-6.716,15-15V263.213l4.394,4.394c5.857,5.857,15.355,5.858,21.213,0C513.465,261.749,513.465,252.252,507.607,246.394
			z M120,30c16.262,0,30,14.196,30,31s-13.738,31-30,31c-16.262,0-30-14.196-30-31S103.738,30,120,30z M118.489,130.428l21.64,43.28
			c2.541,5.082,7.735,8.292,13.417,8.292H225c8.271,0,15,6.729,15,15s-6.729,15-15,15h-90c-5.721,0-10.863-3.177-13.419-8.29l-30-60
			C82.861,126.269,109.549,112.096,118.489,130.428z M60,233.208l-25.604-25.604c-5.865-5.865-5.866-15.343,0-21.208L60,160.791
			V233.208z M89.794,469.468c-1.369,8.208-9.055,13.695-17.262,12.326c-8.156-1.361-13.686-9.105-12.326-17.265l23.022-138.134
			c2.374,1.301,4.888,2.414,7.537,3.297l21.151,7.049L89.794,469.468z M165,422c-8.284,0-15,6.716-15,15v45h-32.568
			c0.854-2.435,1.515-4.972,1.953-7.597l21.343-128.059l18.696,6.231l22.883,68.661c0.086,0.257,0.182,0.509,0.272,0.764H165z
			 M229.729,421.238c-7.622,2.552-16.275-1.431-18.96-9.489l-25.254-75.776c-1.493-4.48-5.008-7.995-9.488-9.488l-75.771-25.252
			c-6.088-2.031-10.246-7.837-10.255-14.213v-79.389l4.748,9.495c5.338,10.676,14.435,18.527,25.252,22.322v25.926
			c0,6.457,4.131,12.188,10.257,14.23l69.484,23.162c4.456,1.488,8.004,5.036,9.49,9.485l30.001,90.004
			C241.848,410.091,237.647,418.597,229.729,421.238z"/>
	</g>
</g>
<g>
</g>
<g>
</g>
<g>
</g>
<g>
</g>
<g>
</g>
<g>
</g>
<g>
</g>
<g>
</g>
<g>
</g>
<g>
</g>
<g>
</g>
<g>
</g>
<g>
</g>
<g>
</g>
<g>
</g>
</svg>
