<?xml version="1.0" encoding="iso-8859-1"?>
<!-- Generator: Adobe Illustrator 19.0.0, SVG Export Plug-In . SVG Version: 6.00 Build 0)  -->
<svg version="1.1" id="Capa_1" xmlns="http://www.w3.org/2000/svg" xmlns:xlink="http://www.w3.org/1999/xlink" x="0px" y="0px"
	 viewBox="0 0 433.2 433.2" style="enable-background:new 0 0 433.2 433.2;" xml:space="preserve">
<g>
	<g>
		<path d="M379.2,130.8c-29.2-30.4-69.6-49.2-114-52c-0.8,0-1.6-0.4-2.4,0c-2.8,0-5.6-0.4-8.4-0.4c-38,0-73.2,12-102,32.4l11.2,11.6
			c21.2-14.4,45.6-23.6,72.4-26.8c-7.2,6-12.4,12-16,18c-3.2,5.2-4.8,10.4-5.6,15.6l-3.6-3.6c-2-2-5.2-2.8-8-2l-30,8.8l-35.6-37.6
			l78-43.2c0.8-0.4,1.6-0.8,2.4-1.6c3.2-3.2,3.2-8,0-11.2L196,17.2c-2-2-5.2-2.8-8-2L90,44.8L56.8,9.2l-0.4-0.4c-6-6-14-8.8-22-8.8
			s-15.6,2.8-22,8.8l-0.8,0.8l-0.8,0.8c-5.6,6-8.8,14-8.8,22s2.8,16,8.8,22c0.4,0.4,0.4,0.4,0.8,0.8l35.2,33.2l-29.6,98
			c-0.8,2.8-0.4,6,2,8L40.8,216c0.4,0.4,1.2,0.8,1.6,1.2c4,2,8.8,0.8,10.8-3.2l43.6-78.8l16.4,15.6L112,150
			c-22,29.6-35.2,66.4-35.2,106c0,48.8,20,93.2,52,125.2c21.2,21.2,48,36.8,77.6,45.2c0.4,0,0.4,0.4,0.8,0.4c0.4,0,0.4,0,0.8,0
			c14.8,4,30,6.4,46,6.4c48.8,0,93.2-20,125.2-52s52-76.4,52-125.2S411.2,162.8,379.2,130.8z M233.2,121.6
			c5.2-8.4,15.2-17.6,32-26.8c40,2.8,76,20,102.8,46.8c27.2,27.2,44.4,63.6,46.8,104.4c-12.8,0.4-25.2,11.6-40,24.8
			c-21.2,18.8-48,42.8-85.6,41.6c-10-0.4-18.4-1.6-23.2-4c3.6-4,12-9.2,26.8-16c6.8-3.2,12-6.8,16-11.2c9.2-10.4,10.8-22.8,7.2-36
			c-3.2-12-10-24-18.4-35.6c-14.4-19.6-34-36.8-44.4-42.8c-8.8-5.2-16.4-12-20.8-20c-2-3.6-3.2-7.6-3.2-12
			C229.2,130.8,230.4,126,233.2,121.6z M100.8,116c-3.2-2.8-8.4-2.8-11.2,0.4c-0.4,0.4-0.8,1.2-1.2,2l-43.6,78L34,185.6l29.6-98.4
			c0.8-3.2,0-6.4-2.4-8.4L22.8,42.4L22.4,42c-2.8-2.8-4.4-6.8-4.4-10.4c0-4,1.6-8,4.4-11.2c0,0,0,0,0.4-0.4c0.4-0.4,0,0,0.4-0.4
			c3.2-2.8,7.2-4.4,11.2-4.4s7.6,1.2,10.4,4l0.4,0.4L82,58.4c2,2.4,5.2,3.2,8,2l98.4-29.6l10.8,10.8l-78.8,44c-4,2-5.2,6.8-3.2,10.8
			c0.4,0.4,0.8,1.2,1.2,1.6l46,48.8c2,2.4,5.2,3.2,8,2l30-9.2l6,6l-28.8,16l-8,4c-1.6,0.8-2.8,2-3.6,3.6l-4,8L148,206l-5.6-6l9.2-30
			c0.8-3.2,0-6.4-2.4-8.4L100.8,116z M203.2,407.6c-24-8-45.6-21.2-62.8-38.8c-29.2-28.8-47.2-69.2-47.2-113.6
			c0-6.4,0.8-12.4,1.6-18.4c19.2,10.8,20,18.4,21.2,28.4c2,16.8,4.8,38.4,51.2,77.2c12.4,10.4,23.2,20.8,30,32.8
			C202.4,384.8,204.8,395.2,203.2,407.6z M368.4,369.2c-29.2,29.2-69.6,47.2-114,47.2c-12.4,0-24-1.6-35.6-4
			c2.8-17.2-0.4-31.6-7.2-44.4c-8-14.4-20-26-33.6-37.6c-41.6-34.8-44-52.8-45.6-66.8c-2-15.6-3.6-27.2-34.4-43.2
			c4.8-22,14-42.4,26.8-60l10.8,10L126,200c-0.8,2.8-0.4,6,2,8l16.8,16.8c0.4,0.4,1.2,0.8,1.6,1.2c4,2,8.8,0.8,10.8-3.2l21.2-38
			v-0.4l2.8-6l5.6-2.8c0.4,0,0.4-0.4,0.8-0.4l33.2-18.4c6,9.2,14.8,17.2,24.4,23.2c9.2,5.6,26.4,20.8,39.6,38.8
			c7.2,10,13.2,20.4,16,30c2,8.4,1.6,15.6-3.6,21.6c-2.4,2.8-6,5.2-10.8,7.2c-18,8-28.4,14.8-33.2,20.8c-4,4.8-4.8,9.2-3.6,13.6
			c1.2,4.4,4,7.6,8.8,10c6.8,3.6,18,5.6,30.4,5.6c44,1.6,73.6-24.8,96.8-45.6c12-10.8,22-19.6,29.6-20.4
			C413.2,303.6,396,341.6,368.4,369.2z"/>
	</g>
</g>
<g>
</g>
<g>
</g>
<g>
</g>
<g>
</g>
<g>
</g>
<g>
</g>
<g>
</g>
<g>
</g>
<g>
</g>
<g>
</g>
<g>
</g>
<g>
</g>
<g>
</g>
<g>
</g>
<g>
</g>
</svg>
